<?xml version="1.0" encoding="UTF-8"?>
<svg id="Layer_2" data-name="Layer 2" xmlns="http://www.w3.org/2000/svg" viewBox="0 0 254.56 70.19">
  <defs>
    <style>
      .cls-1 {
        fill: #991b25;
      }

      .cls-1, .cls-2 {
        stroke-width: 0px;
      }
    </style>
  </defs>
  <g id="Layer_1-2" data-name="Layer 1">
    <g>
      <path class="cls-2" d="m34.8,15.87c-.08-.05-.18-.08-.27-.08-.24.01-.37.13-.49.25l-5.38,5.97c-.14.15-.24.34-.31.53-.07.19-.13.4-.13.6l-.15,11.72h0l-.04.09-.09.04-9.08.19c-.22,0-.42.07-.61.16-.19.09-.36.21-.5.38l-3.23,3.93c-.1.12-.18.26-.18.45,0,.17.1.36.24.45.14.09.28.11.42.12h0l12.82-.11.11.11-.04,9.36h0c0,.49.4.89.89.89h5.38c.49,0,.89-.4.89-.89V16.43c0-.12-.02-.25-.09-.38-.04-.06-.09-.13-.17-.18Z"/>
      <path class="cls-2" d="m37.27,34.76h4.4c.49,0,.89.4.89.89v4.02c0,.49-.4.89-.89.89h-4.4c-.49,0-.89-.4-.89-.89v-4.02c0-.49.4-.89.89-.89Z"/>
      <path class="cls-2" d="m57.18,16.05c-.04-.07-.09-.13-.17-.18-.08-.05-.18-.08-.26-.08-.24,0-.37.13-.48.24l-5.58,5.98c-.14.15-.24.34-.32.53-.08.2-.13.4-.13.61v26.89c0,.49.4.89.89.89h5.26c.49,0,.89-.4.89-.89V16.43c0-.13-.02-.25-.09-.38Z"/>
      <path class="cls-1" d="m76.57,0H.51C.23,0,0,.22,0,.5v69.19c0,.28.23.5.51.5h76.06c.28,0,.51-.22.51-.5V.5c0-.28-.23-.5-.51-.5Zm-2.94,66.24c0,.28-.22.51-.5.51H3.95c-.28,0-.5-.23-.5-.51V3.95c0-.28.22-.5.5-.5h69.17c.28,0,.5.22.5.5v62.29Z"/>
    </g>
    <g>
      <path class="cls-2" d="m120.44,16.96c-6.3,0-10.84,4.29-10.84,10.79s4.54,10.75,10.84,10.75,10.85-4.32,10.85-10.75-4.54-10.79-10.85-10.79Zm0,16.18c-2.84,0-4.66-2.05-4.66-5.39s1.83-5.42,4.66-5.42,4.67,1.99,4.67,5.42-1.83,5.39-4.67,5.39Z"/>
      <path class="cls-2" d="m205.12,16.96c-6.3,0-10.84,4.29-10.84,10.79s4.54,10.75,10.84,10.75,10.85-4.32,10.85-10.75-4.54-10.79-10.85-10.79Zm0,16.18c-2.84,0-4.66-2.05-4.66-5.39s1.83-5.42,4.66-5.42,4.67,1.99,4.67,5.42-1.83,5.39-4.67,5.39Z"/>
      <g>
        <path class="cls-2" d="m99.86,48.45c.69-.3,1.15-.87,1.15-1.92,0-1.58-.99-2.54-3.52-2.54-1.04,0-2.07.11-2.87.28v8.72c.8.15,1.83.25,2.93.25,2.72,0,3.85-1.06,3.85-2.7,0-1.08-.61-1.74-1.53-2.07Zm-3.19-2.77c.35-.02.68-.04.97-.04.91,0,1.35.37,1.35.98,0,.69-.34,1.06-1.27,1.06h-1.05v-2Zm1.08,5.89c-.39,0-.73-.02-1.08-.04v-2.23h1.16c.99,0,1.48.42,1.48,1.1,0,.78-.47,1.16-1.56,1.16Z"/>
        <path class="cls-2" d="m112.71,44.04c-.34,0-.66.03-.98.08v5.28c0,1.2-.65,1.9-1.76,1.9s-1.79-.7-1.79-1.9v-5.28c-.35-.05-.7-.08-1.05-.08s-.69.03-1.02.08v5.3c0,2.5,1.53,3.8,3.85,3.8s3.8-1.39,3.8-3.85v-5.25c-.36-.05-.71-.08-1.04-.08Z"/>
        <path class="cls-2" d="m122.45,47.51c-1.59-.39-1.78-.58-1.78-1.02,0-.41.44-.72,1.26-.72.98,0,1.75.33,2.27.69.56-.33.91-1.04.96-1.67-.53-.42-1.55-.92-3.08-.92-2.05,0-3.4,1.09-3.4,2.8,0,1.78,1.33,2.36,2.81,2.72,1.56.4,1.79.66,1.79,1.12,0,.49-.39.8-1.39.8s-1.96-.37-2.54-.84c-.52.32-.89.92-.96,1.64.56.5,1.67,1.09,3.45,1.09,2.13,0,3.47-1.06,3.43-2.99-.03-1.59-1.16-2.29-2.82-2.7Z"/>
        <path class="cls-2" d="m131.15,44.04c-.35,0-.68.02-1.01.08v8.85c.36.05.71.08,1.05.08s.68-.03,1.01-.08v-8.85c-.37-.07-.7-.08-1.05-.08Z"/>
        <path class="cls-2" d="m144.15,44.04c-.36,0-.62.03-.99.08v4.92l.05.71-.3-.54-3.41-5.16c-.68-.08-1.51-.02-1.98.14v8.78c.39.05.66.08,1.01.08s.68-.03,1.04-.08v-4.86l-.05-.64.29.53,3.43,5.04c.61.04,1.31.02,1.97-.11v-8.82c-.37-.05-.7-.08-1.05-.08Z"/>
        <path class="cls-2" d="m156.51,51.15h-3.94v-1.79h3.39c.06-.3.09-.59.09-.89s-.03-.61-.09-.92h-3.39v-1.6h3.8c.08-.3.12-.61.12-.91s-.03-.63-.12-.92h-5.86v8.87h6c.07-.3.1-.62.1-.92s-.03-.61-.1-.91Z"/>
        <path class="cls-2" d="m164.98,47.51c-1.59-.39-1.78-.58-1.78-1.02,0-.41.44-.72,1.26-.72.98,0,1.76.33,2.27.69.56-.33.91-1.04.96-1.67-.53-.42-1.55-.92-3.08-.92-2.05,0-3.4,1.09-3.4,2.8.02,1.78,1.33,2.36,2.81,2.72,1.56.4,1.79.66,1.79,1.12,0,.49-.39.8-1.39.8s-1.96-.37-2.54-.84c-.52.32-.89.92-.96,1.64.56.5,1.67,1.09,3.45,1.09,2.13,0,3.47-1.06,3.43-2.99-.03-1.59-1.16-2.29-2.82-2.7Z"/>
        <path class="cls-2" d="m176.15,47.51c-1.59-.39-1.78-.58-1.78-1.02,0-.41.44-.72,1.26-.72.98,0,1.76.33,2.27.69.57-.33.91-1.04.96-1.67-.52-.42-1.55-.92-3.08-.92-2.04,0-3.4,1.09-3.4,2.8.02,1.78,1.33,2.36,2.82,2.72,1.56.4,1.78.66,1.78,1.12,0,.49-.39.8-1.38.8s-1.97-.37-2.54-.84c-.52.32-.89.92-.96,1.64.57.5,1.67,1.09,3.45,1.09,2.13,0,3.47-1.06,3.43-2.99-.03-1.59-1.16-2.29-2.82-2.7Z"/>
        <path class="cls-2" d="m195.16,50.68c-.42.35-.92.62-1.79.62-1.42,0-2.41-1.06-2.41-2.75s.98-2.76,2.47-2.76c.59,0,1.06.15,1.56.51.59-.32,1.02-.99,1.12-1.61-.59-.49-1.49-.86-2.74-.86-2.74,0-4.65,1.97-4.65,4.72s1.76,4.69,4.57,4.69c1.58,0,2.47-.47,2.99-.89-.14-.8-.47-1.29-1.12-1.66Z"/>
        <path class="cls-2" d="m206.84,51.15h-3.94v-1.79h3.38c.07-.3.1-.59.1-.89s-.03-.61-.1-.92h-3.38v-1.6h3.8c.08-.3.11-.61.11-.91s-.02-.63-.11-.92h-5.86v8.87h6c.07-.3.1-.62.1-.92s-.03-.61-.1-.91Z"/>
        <path class="cls-2" d="m218.46,44.04c-.36,0-.62.03-1,.08v4.92l.06.71-.31-.54-3.41-5.16c-.67-.08-1.5-.02-1.97.14v8.78c.39.05.66.08,1.01.08s.68-.03,1.03-.08v-4.86l-.05-.64.29.53,3.42,5.04c.61.04,1.32.02,1.98-.11v-8.82c-.38-.05-.71-.08-1.05-.08Z"/>
        <path class="cls-2" d="m231.28,44.11h-7.1c-.07.3-.09.61-.09.92,0,.29.02.61.09.91h2.54v7.04c.34.07.67.1,1.02.1s.69-.03,1.04-.1v-7.04h2.51c.08-.32.11-.62.11-.92s-.02-.61-.11-.91Z"/>
        <path class="cls-2" d="m241.96,51.15h-3.94v-1.79h3.38c.07-.3.09-.59.09-.89s-.02-.61-.09-.92h-3.38v-1.6h3.8c.08-.3.11-.61.11-.91s-.03-.63-.11-.92h-5.86v8.87h6c.07-.3.09-.62.09-.92s-.02-.61-.09-.91Z"/>
        <path class="cls-2" d="m252.12,49.48c.95-.5,1.57-1.39,1.57-2.67,0-1.73-1.1-2.85-3.78-2.85-.98,0-2.11.12-2.98.29v8.73c.37.07.7.08,1.05.08s.69-.02,1.02-.08v-3.07c.34.02.69.02,1,.02h.1l1.83,3.11c.15.02.34.02.52.02.61,0,1.29-.04,1.74-.17l-2.07-3.41Zm-2.03-1.25c-.35,0-.72,0-1.09,0v-2.47c.35-.03.7-.05,1.07-.05,1.02,0,1.53.47,1.53,1.23,0,.72-.43,1.29-1.51,1.29Z"/>
      </g>
      <polygon class="cls-2" points="100.14 26.43 100.14 22.77 107.87 22.77 107.87 17.66 94.46 17.66 94.46 38.5 100.14 38.5 100.14 31.44 106.89 31.44 106.89 26.43 100.14 26.43"/>
      <g>
        <polygon class="cls-2" points="188.85 17.66 182.61 17.66 179.76 23.18 178.98 24.95 178.19 23.18 175.38 17.66 168.55 17.66 175.89 30.34 175.89 38.57 181.56 38.57 181.56 30.62 188.85 17.66"/>
        <polygon class="cls-2" points="162.7 22.67 167.74 22.67 167.74 17.66 151.87 17.66 151.87 22.67 157.03 22.67 157.03 38.57 162.7 38.57 162.7 22.67"/>
      </g>
      <polygon class="cls-2" points="224.17 28.54 224.01 26.93 224.73 28.23 230.82 38.57 236.75 38.57 236.75 17.66 231.07 17.66 231.07 27.5 231.23 29.11 230.51 27.82 224.21 17.52 218.49 17.52 218.49 38.57 224.17 38.57 224.17 28.54"/>
      <polygon class="cls-2" points="240.28 17.66 240.28 38.57 254.56 38.57 254.56 33.39 246.14 33.39 246.14 30.52 253.14 30.52 253.14 25.41 246.14 25.41 246.14 22.84 254.19 22.84 254.19 17.66 240.28 17.66"/>
      <path class="cls-2" d="m146.74,30.06c2.05-1.2,3.31-3.22,3.31-6.06,0-4.04-2.55-6.69-9.12-6.69-2.37,0-5.04.25-7.12.66v20.59h5.67v-7.22h1.8l4.15,7.22h6.43l-5.12-8.51Zm-5.2-3.31h-2.05v-4.64c.66-.03,1.33-.06,2.02-.06,1.83,0,2.74.92,2.74,2.33,0,1.29-.79,2.37-2.71,2.37Z"/>
    </g>
  </g>
</svg>